<mxfile host="Electron" modified="2023-07-29T15:32:02.982Z" agent="Mozilla/5.0 (X11; Linux x86_64) AppleWebKit/537.36 (KHTML, like Gecko) draw.io/21.6.5 Chrome/114.0.5735.243 Electron/25.3.1 Safari/537.36" etag="qCA4xkCTXO9GN740CXu_" version="21.6.5" type="device">
  <diagram id="C5RBs43oDa-KdzZeNtuy" name="Page-1">
    <mxGraphModel dx="2744" dy="1686" grid="0" gridSize="10" guides="1" tooltips="1" connect="1" arrows="1" fold="1" page="1" pageScale="1" pageWidth="827" pageHeight="1169" math="0" shadow="0">
      <root>
        <mxCell id="WIyWlLk6GJQsqaUBKTNV-0" />
        <mxCell id="WIyWlLk6GJQsqaUBKTNV-1" parent="WIyWlLk6GJQsqaUBKTNV-0" />
        <mxCell id="oGk8fqHeLHp1b5MFSbz6-24" value="launcher.sh" style="swimlane;whiteSpace=wrap;html=1;strokeWidth=3;" parent="WIyWlLk6GJQsqaUBKTNV-1" vertex="1">
          <mxGeometry x="30" y="230" width="360" height="790" as="geometry" />
        </mxCell>
        <mxCell id="WIyWlLk6GJQsqaUBKTNV-6" value="python3 and tkinter installed" style="rhombus;whiteSpace=wrap;html=1;shadow=0;fontFamily=Helvetica;fontSize=12;align=center;strokeWidth=1;spacing=6;spacingTop=-4;" parent="oGk8fqHeLHp1b5MFSbz6-24" vertex="1">
          <mxGeometry x="45" y="110" width="110" height="80" as="geometry" />
        </mxCell>
        <mxCell id="WIyWlLk6GJQsqaUBKTNV-7" value="install python3 and python3-tk" style="rounded=1;whiteSpace=wrap;html=1;fontSize=12;glass=0;strokeWidth=1;shadow=0;" parent="oGk8fqHeLHp1b5MFSbz6-24" vertex="1">
          <mxGeometry x="200" y="130" width="120" height="40" as="geometry" />
        </mxCell>
        <mxCell id="oGk8fqHeLHp1b5MFSbz6-7" value="No" style="edgeStyle=orthogonalEdgeStyle;rounded=0;orthogonalLoop=1;jettySize=auto;html=1;exitX=1;exitY=0.5;exitDx=0;exitDy=0;entryX=0;entryY=0.5;entryDx=0;entryDy=0;" parent="oGk8fqHeLHp1b5MFSbz6-24" source="WIyWlLk6GJQsqaUBKTNV-6" target="WIyWlLk6GJQsqaUBKTNV-7" edge="1">
          <mxGeometry relative="1" as="geometry" />
        </mxCell>
        <mxCell id="oGk8fqHeLHp1b5MFSbz6-2" value="" style="ellipse;html=1;shape=startState;fillColor=#008a00;strokeColor=#000500;fontColor=#ffffff;strokeWidth=2;" parent="oGk8fqHeLHp1b5MFSbz6-24" vertex="1">
          <mxGeometry x="78" y="36" width="45" height="45" as="geometry" />
        </mxCell>
        <mxCell id="oGk8fqHeLHp1b5MFSbz6-3" value="" style="edgeStyle=orthogonalEdgeStyle;html=1;verticalAlign=bottom;endArrow=open;endSize=8;rounded=0;exitX=0.499;exitY=0.897;exitDx=0;exitDy=0;exitPerimeter=0;strokeWidth=2;" parent="oGk8fqHeLHp1b5MFSbz6-24" source="oGk8fqHeLHp1b5MFSbz6-2" edge="1">
          <mxGeometry relative="1" as="geometry">
            <mxPoint x="100" y="110" as="targetPoint" />
          </mxGeometry>
        </mxCell>
        <mxCell id="oGk8fqHeLHp1b5MFSbz6-5" value="check docker installation" style="rounded=1;whiteSpace=wrap;html=1;" parent="oGk8fqHeLHp1b5MFSbz6-24" vertex="1">
          <mxGeometry x="40" y="240" width="120" height="40" as="geometry" />
        </mxCell>
        <mxCell id="oGk8fqHeLHp1b5MFSbz6-8" value="Yes" style="edgeStyle=orthogonalEdgeStyle;rounded=0;orthogonalLoop=1;jettySize=auto;html=1;exitX=0.5;exitY=1;exitDx=0;exitDy=0;entryX=0.5;entryY=0;entryDx=0;entryDy=0;" parent="oGk8fqHeLHp1b5MFSbz6-24" source="WIyWlLk6GJQsqaUBKTNV-6" target="oGk8fqHeLHp1b5MFSbz6-5" edge="1">
          <mxGeometry relative="1" as="geometry" />
        </mxCell>
        <mxCell id="oGk8fqHeLHp1b5MFSbz6-14" style="edgeStyle=orthogonalEdgeStyle;rounded=0;orthogonalLoop=1;jettySize=auto;html=1;exitX=0.5;exitY=1;exitDx=0;exitDy=0;entryX=1;entryY=0.5;entryDx=0;entryDy=0;" parent="oGk8fqHeLHp1b5MFSbz6-24" source="WIyWlLk6GJQsqaUBKTNV-7" target="oGk8fqHeLHp1b5MFSbz6-5" edge="1">
          <mxGeometry relative="1" as="geometry" />
        </mxCell>
        <mxCell id="oGk8fqHeLHp1b5MFSbz6-6" value="docker installed" style="rhombus;whiteSpace=wrap;html=1;" parent="oGk8fqHeLHp1b5MFSbz6-24" vertex="1">
          <mxGeometry x="60" y="320" width="80" height="80" as="geometry" />
        </mxCell>
        <mxCell id="oGk8fqHeLHp1b5MFSbz6-9" style="edgeStyle=orthogonalEdgeStyle;rounded=0;orthogonalLoop=1;jettySize=auto;html=1;exitX=0.5;exitY=1;exitDx=0;exitDy=0;entryX=0.5;entryY=0;entryDx=0;entryDy=0;" parent="oGk8fqHeLHp1b5MFSbz6-24" source="oGk8fqHeLHp1b5MFSbz6-5" target="oGk8fqHeLHp1b5MFSbz6-6" edge="1">
          <mxGeometry relative="1" as="geometry" />
        </mxCell>
        <mxCell id="oGk8fqHeLHp1b5MFSbz6-10" value="" style="shape=sumEllipse;perimeter=ellipsePerimeter;html=1;backgroundOutline=1;" parent="oGk8fqHeLHp1b5MFSbz6-24" vertex="1">
          <mxGeometry x="200" y="345" width="30" height="30" as="geometry" />
        </mxCell>
        <mxCell id="oGk8fqHeLHp1b5MFSbz6-11" value="No" style="edgeStyle=orthogonalEdgeStyle;rounded=0;orthogonalLoop=1;jettySize=auto;html=1;exitX=1;exitY=0.5;exitDx=0;exitDy=0;entryX=0;entryY=0.5;entryDx=0;entryDy=0;" parent="oGk8fqHeLHp1b5MFSbz6-24" source="oGk8fqHeLHp1b5MFSbz6-6" target="oGk8fqHeLHp1b5MFSbz6-10" edge="1">
          <mxGeometry relative="1" as="geometry" />
        </mxCell>
        <mxCell id="oGk8fqHeLHp1b5MFSbz6-12" value="check docker group" style="rounded=1;whiteSpace=wrap;html=1;" parent="oGk8fqHeLHp1b5MFSbz6-24" vertex="1">
          <mxGeometry x="40" y="450" width="120" height="40" as="geometry" />
        </mxCell>
        <mxCell id="oGk8fqHeLHp1b5MFSbz6-13" value="Yes" style="edgeStyle=orthogonalEdgeStyle;rounded=0;orthogonalLoop=1;jettySize=auto;html=1;exitX=0.5;exitY=1;exitDx=0;exitDy=0;entryX=0.5;entryY=0;entryDx=0;entryDy=0;" parent="oGk8fqHeLHp1b5MFSbz6-24" source="oGk8fqHeLHp1b5MFSbz6-6" target="oGk8fqHeLHp1b5MFSbz6-12" edge="1">
          <mxGeometry relative="1" as="geometry" />
        </mxCell>
        <mxCell id="oGk8fqHeLHp1b5MFSbz6-15" value="user in &lt;br&gt;docker group" style="rhombus;whiteSpace=wrap;html=1;shadow=0;fontFamily=Helvetica;fontSize=12;align=center;strokeWidth=1;spacing=6;spacingTop=-4;" parent="oGk8fqHeLHp1b5MFSbz6-24" vertex="1">
          <mxGeometry x="45" y="524.5" width="110" height="80" as="geometry" />
        </mxCell>
        <mxCell id="oGk8fqHeLHp1b5MFSbz6-16" style="edgeStyle=orthogonalEdgeStyle;rounded=0;orthogonalLoop=1;jettySize=auto;html=1;exitX=0.5;exitY=1;exitDx=0;exitDy=0;entryX=0.5;entryY=0;entryDx=0;entryDy=0;" parent="oGk8fqHeLHp1b5MFSbz6-24" source="oGk8fqHeLHp1b5MFSbz6-12" target="oGk8fqHeLHp1b5MFSbz6-15" edge="1">
          <mxGeometry relative="1" as="geometry">
            <mxPoint x="100" y="520" as="targetPoint" />
          </mxGeometry>
        </mxCell>
        <mxCell id="oGk8fqHeLHp1b5MFSbz6-17" value="add user to docker group" style="rounded=1;whiteSpace=wrap;html=1;fontSize=12;glass=0;strokeWidth=1;shadow=0;" parent="oGk8fqHeLHp1b5MFSbz6-24" vertex="1">
          <mxGeometry x="200" y="544.5" width="120" height="40" as="geometry" />
        </mxCell>
        <mxCell id="oGk8fqHeLHp1b5MFSbz6-18" value="No" style="edgeStyle=orthogonalEdgeStyle;rounded=0;orthogonalLoop=1;jettySize=auto;html=1;exitX=1;exitY=0.5;exitDx=0;exitDy=0;entryX=0;entryY=0.5;entryDx=0;entryDy=0;" parent="oGk8fqHeLHp1b5MFSbz6-24" source="oGk8fqHeLHp1b5MFSbz6-15" target="oGk8fqHeLHp1b5MFSbz6-17" edge="1">
          <mxGeometry relative="1" as="geometry" />
        </mxCell>
        <mxCell id="oGk8fqHeLHp1b5MFSbz6-19" value="run launcher app" style="rounded=1;whiteSpace=wrap;html=1;" parent="oGk8fqHeLHp1b5MFSbz6-24" vertex="1">
          <mxGeometry x="40" y="650" width="120" height="40" as="geometry" />
        </mxCell>
        <mxCell id="oGk8fqHeLHp1b5MFSbz6-20" value="Yes" style="edgeStyle=orthogonalEdgeStyle;rounded=0;orthogonalLoop=1;jettySize=auto;html=1;exitX=0.5;exitY=1;exitDx=0;exitDy=0;entryX=0.5;entryY=0;entryDx=0;entryDy=0;" parent="oGk8fqHeLHp1b5MFSbz6-24" source="oGk8fqHeLHp1b5MFSbz6-15" target="oGk8fqHeLHp1b5MFSbz6-19" edge="1">
          <mxGeometry relative="1" as="geometry" />
        </mxCell>
        <mxCell id="oGk8fqHeLHp1b5MFSbz6-21" style="edgeStyle=orthogonalEdgeStyle;rounded=0;orthogonalLoop=1;jettySize=auto;html=1;exitX=0.5;exitY=1;exitDx=0;exitDy=0;entryX=1;entryY=0.5;entryDx=0;entryDy=0;" parent="oGk8fqHeLHp1b5MFSbz6-24" source="oGk8fqHeLHp1b5MFSbz6-17" target="oGk8fqHeLHp1b5MFSbz6-19" edge="1">
          <mxGeometry relative="1" as="geometry" />
        </mxCell>
        <mxCell id="oGk8fqHeLHp1b5MFSbz6-22" value="&lt;span&gt;A&lt;/span&gt;" style="ellipse;whiteSpace=wrap;html=1;rounded=1;fontStyle=1;fillColor=#EDEDED;" parent="oGk8fqHeLHp1b5MFSbz6-24" vertex="1">
          <mxGeometry x="80" y="730" width="40" height="40" as="geometry" />
        </mxCell>
        <mxCell id="oGk8fqHeLHp1b5MFSbz6-23" value="" style="edgeStyle=orthogonalEdgeStyle;rounded=0;orthogonalLoop=1;jettySize=auto;html=1;" parent="oGk8fqHeLHp1b5MFSbz6-24" source="oGk8fqHeLHp1b5MFSbz6-19" target="oGk8fqHeLHp1b5MFSbz6-22" edge="1">
          <mxGeometry relative="1" as="geometry" />
        </mxCell>
        <mxCell id="oGk8fqHeLHp1b5MFSbz6-25" value="main.py" style="swimlane;whiteSpace=wrap;html=1;strokeWidth=3;" parent="WIyWlLk6GJQsqaUBKTNV-1" vertex="1">
          <mxGeometry x="410" y="230" width="380" height="901" as="geometry" />
        </mxCell>
        <mxCell id="oGk8fqHeLHp1b5MFSbz6-50" style="edgeStyle=orthogonalEdgeStyle;rounded=0;orthogonalLoop=1;jettySize=auto;html=1;exitX=0.5;exitY=1;exitDx=0;exitDy=0;entryX=0.5;entryY=0;entryDx=0;entryDy=0;" parent="oGk8fqHeLHp1b5MFSbz6-25" source="oGk8fqHeLHp1b5MFSbz6-49" edge="1">
          <mxGeometry relative="1" as="geometry">
            <mxPoint x="100" y="110" as="targetPoint" />
          </mxGeometry>
        </mxCell>
        <mxCell id="oGk8fqHeLHp1b5MFSbz6-49" value="&lt;span&gt;A&lt;/span&gt;" style="ellipse;whiteSpace=wrap;html=1;rounded=1;fontStyle=1;fillColor=#EDEDED;" parent="oGk8fqHeLHp1b5MFSbz6-25" vertex="1">
          <mxGeometry x="80" y="40" width="40" height="40" as="geometry" />
        </mxCell>
        <mxCell id="oGk8fqHeLHp1b5MFSbz6-57" style="edgeStyle=orthogonalEdgeStyle;rounded=0;orthogonalLoop=1;jettySize=auto;html=1;exitX=0.5;exitY=1;exitDx=0;exitDy=0;entryX=0.5;entryY=0;entryDx=0;entryDy=0;" parent="oGk8fqHeLHp1b5MFSbz6-25" source="oGk8fqHeLHp1b5MFSbz6-52" target="oGk8fqHeLHp1b5MFSbz6-55" edge="1">
          <mxGeometry relative="1" as="geometry" />
        </mxCell>
        <mxCell id="oGk8fqHeLHp1b5MFSbz6-52" value="read config.ini" style="rounded=1;whiteSpace=wrap;html=1;fontSize=12;glass=0;strokeWidth=1;shadow=0;" parent="oGk8fqHeLHp1b5MFSbz6-25" vertex="1">
          <mxGeometry x="40" y="110" width="120" height="40" as="geometry" />
        </mxCell>
        <mxCell id="oGk8fqHeLHp1b5MFSbz6-64" style="edgeStyle=orthogonalEdgeStyle;rounded=0;orthogonalLoop=1;jettySize=auto;html=1;exitX=0.5;exitY=1;exitDx=0;exitDy=0;entryX=0.5;entryY=0;entryDx=0;entryDy=0;" parent="oGk8fqHeLHp1b5MFSbz6-25" source="oGk8fqHeLHp1b5MFSbz6-55" target="oGk8fqHeLHp1b5MFSbz6-61" edge="1">
          <mxGeometry relative="1" as="geometry" />
        </mxCell>
        <mxCell id="oGk8fqHeLHp1b5MFSbz6-55" value="build GUI window and user input fields" style="rounded=1;whiteSpace=wrap;html=1;fontSize=12;glass=0;strokeWidth=1;shadow=0;" parent="oGk8fqHeLHp1b5MFSbz6-25" vertex="1">
          <mxGeometry x="35" y="190" width="130" height="40" as="geometry" />
        </mxCell>
        <mxCell id="oGk8fqHeLHp1b5MFSbz6-60" value="Yes" style="edgeStyle=orthogonalEdgeStyle;rounded=0;orthogonalLoop=1;jettySize=auto;html=1;exitX=0.5;exitY=1;exitDx=0;exitDy=0;entryX=0.5;entryY=0;entryDx=0;entryDy=0;" parent="oGk8fqHeLHp1b5MFSbz6-25" source="oGk8fqHeLHp1b5MFSbz6-56" target="oGk8fqHeLHp1b5MFSbz6-59" edge="1">
          <mxGeometry relative="1" as="geometry" />
        </mxCell>
        <mxCell id="oGk8fqHeLHp1b5MFSbz6-73" value="No" style="edgeStyle=orthogonalEdgeStyle;rounded=0;orthogonalLoop=1;jettySize=auto;html=1;exitX=1;exitY=0.5;exitDx=0;exitDy=0;entryX=0;entryY=0.5;entryDx=0;entryDy=0;" parent="oGk8fqHeLHp1b5MFSbz6-25" source="oGk8fqHeLHp1b5MFSbz6-56" target="oGk8fqHeLHp1b5MFSbz6-72" edge="1">
          <mxGeometry relative="1" as="geometry" />
        </mxCell>
        <mxCell id="oGk8fqHeLHp1b5MFSbz6-56" value=".env file&lt;br&gt;exists" style="rhombus;whiteSpace=wrap;html=1;" parent="oGk8fqHeLHp1b5MFSbz6-25" vertex="1">
          <mxGeometry x="60" y="350" width="80" height="80" as="geometry" />
        </mxCell>
        <mxCell id="oGk8fqHeLHp1b5MFSbz6-66" style="edgeStyle=orthogonalEdgeStyle;rounded=0;orthogonalLoop=1;jettySize=auto;html=1;exitX=0.5;exitY=1;exitDx=0;exitDy=0;entryX=0.5;entryY=0;entryDx=0;entryDy=0;" parent="oGk8fqHeLHp1b5MFSbz6-25" source="oGk8fqHeLHp1b5MFSbz6-59" target="oGk8fqHeLHp1b5MFSbz6-65" edge="1">
          <mxGeometry relative="1" as="geometry" />
        </mxCell>
        <mxCell id="oGk8fqHeLHp1b5MFSbz6-59" value="disable credentials input fields" style="rounded=1;whiteSpace=wrap;html=1;fontSize=12;glass=0;strokeWidth=1;shadow=0;" parent="oGk8fqHeLHp1b5MFSbz6-25" vertex="1">
          <mxGeometry x="35" y="474.5" width="130" height="40" as="geometry" />
        </mxCell>
        <mxCell id="oGk8fqHeLHp1b5MFSbz6-62" value="" style="edgeStyle=orthogonalEdgeStyle;rounded=0;orthogonalLoop=1;jettySize=auto;html=1;" parent="oGk8fqHeLHp1b5MFSbz6-25" source="oGk8fqHeLHp1b5MFSbz6-61" target="oGk8fqHeLHp1b5MFSbz6-56" edge="1">
          <mxGeometry relative="1" as="geometry" />
        </mxCell>
        <mxCell id="oGk8fqHeLHp1b5MFSbz6-61" value="check .env file" style="rounded=1;whiteSpace=wrap;html=1;fontSize=12;glass=0;strokeWidth=1;shadow=0;" parent="oGk8fqHeLHp1b5MFSbz6-25" vertex="1">
          <mxGeometry x="40" y="270" width="120" height="40" as="geometry" />
        </mxCell>
        <mxCell id="oGk8fqHeLHp1b5MFSbz6-69" style="edgeStyle=orthogonalEdgeStyle;rounded=0;orthogonalLoop=1;jettySize=auto;html=1;exitX=0.5;exitY=1;exitDx=0;exitDy=0;entryX=0.5;entryY=0;entryDx=0;entryDy=0;" parent="oGk8fqHeLHp1b5MFSbz6-25" source="oGk8fqHeLHp1b5MFSbz6-65" target="oGk8fqHeLHp1b5MFSbz6-68" edge="1">
          <mxGeometry relative="1" as="geometry" />
        </mxCell>
        <mxCell id="oGk8fqHeLHp1b5MFSbz6-65" value="check platform status" style="rounded=1;whiteSpace=wrap;html=1;fontSize=12;glass=0;strokeWidth=1;shadow=0;" parent="oGk8fqHeLHp1b5MFSbz6-25" vertex="1">
          <mxGeometry x="35" y="560" width="130" height="40" as="geometry" />
        </mxCell>
        <mxCell id="oGk8fqHeLHp1b5MFSbz6-71" value="Yes" style="edgeStyle=orthogonalEdgeStyle;rounded=0;orthogonalLoop=1;jettySize=auto;html=1;exitX=0.5;exitY=1;exitDx=0;exitDy=0;entryX=0.5;entryY=0;entryDx=0;entryDy=0;" parent="oGk8fqHeLHp1b5MFSbz6-25" source="oGk8fqHeLHp1b5MFSbz6-68" target="oGk8fqHeLHp1b5MFSbz6-70" edge="1">
          <mxGeometry relative="1" as="geometry" />
        </mxCell>
        <mxCell id="oGk8fqHeLHp1b5MFSbz6-77" value="No" style="edgeStyle=orthogonalEdgeStyle;rounded=0;orthogonalLoop=1;jettySize=auto;html=1;exitX=1;exitY=0.5;exitDx=0;exitDy=0;entryX=0;entryY=0.5;entryDx=0;entryDy=0;" parent="oGk8fqHeLHp1b5MFSbz6-25" source="oGk8fqHeLHp1b5MFSbz6-68" target="oGk8fqHeLHp1b5MFSbz6-76" edge="1">
          <mxGeometry relative="1" as="geometry" />
        </mxCell>
        <mxCell id="oGk8fqHeLHp1b5MFSbz6-68" value="platform is running" style="rhombus;whiteSpace=wrap;html=1;" parent="oGk8fqHeLHp1b5MFSbz6-25" vertex="1">
          <mxGeometry x="60" y="640" width="80" height="80" as="geometry" />
        </mxCell>
        <mxCell id="oGk8fqHeLHp1b5MFSbz6-79" style="edgeStyle=orthogonalEdgeStyle;rounded=0;orthogonalLoop=1;jettySize=auto;html=1;exitX=0.5;exitY=1;exitDx=0;exitDy=0;" parent="oGk8fqHeLHp1b5MFSbz6-25" source="oGk8fqHeLHp1b5MFSbz6-70" target="oGk8fqHeLHp1b5MFSbz6-78" edge="1">
          <mxGeometry relative="1" as="geometry" />
        </mxCell>
        <mxCell id="oGk8fqHeLHp1b5MFSbz6-70" value="enable stop button" style="rounded=1;whiteSpace=wrap;html=1;fontSize=12;glass=0;strokeWidth=1;shadow=0;" parent="oGk8fqHeLHp1b5MFSbz6-25" vertex="1">
          <mxGeometry x="35" y="760" width="130" height="40" as="geometry" />
        </mxCell>
        <mxCell id="oGk8fqHeLHp1b5MFSbz6-81" style="edgeStyle=orthogonalEdgeStyle;rounded=0;orthogonalLoop=1;jettySize=auto;html=1;exitX=1;exitY=0.5;exitDx=0;exitDy=0;" parent="oGk8fqHeLHp1b5MFSbz6-25" source="oGk8fqHeLHp1b5MFSbz6-72" edge="1">
          <mxGeometry relative="1" as="geometry">
            <mxPoint x="119.99999999999977" y="860" as="targetPoint" />
            <Array as="points">
              <mxPoint x="340" y="390" />
              <mxPoint x="340" y="860" />
            </Array>
          </mxGeometry>
        </mxCell>
        <mxCell id="oGk8fqHeLHp1b5MFSbz6-72" value="enable start button" style="rounded=1;whiteSpace=wrap;html=1;fontSize=12;glass=0;strokeWidth=1;shadow=0;" parent="oGk8fqHeLHp1b5MFSbz6-25" vertex="1">
          <mxGeometry x="200" y="370" width="130" height="40" as="geometry" />
        </mxCell>
        <mxCell id="oGk8fqHeLHp1b5MFSbz6-80" style="edgeStyle=orthogonalEdgeStyle;rounded=0;orthogonalLoop=1;jettySize=auto;html=1;exitX=0.5;exitY=1;exitDx=0;exitDy=0;entryX=1;entryY=0.5;entryDx=0;entryDy=0;" parent="oGk8fqHeLHp1b5MFSbz6-25" source="oGk8fqHeLHp1b5MFSbz6-76" target="oGk8fqHeLHp1b5MFSbz6-78" edge="1">
          <mxGeometry relative="1" as="geometry" />
        </mxCell>
        <mxCell id="oGk8fqHeLHp1b5MFSbz6-76" value="enable start button&lt;br&gt;enable reset button" style="rounded=1;whiteSpace=wrap;html=1;fontSize=12;glass=0;strokeWidth=1;shadow=0;" parent="oGk8fqHeLHp1b5MFSbz6-25" vertex="1">
          <mxGeometry x="200" y="661.25" width="130" height="37.5" as="geometry" />
        </mxCell>
        <mxCell id="oGk8fqHeLHp1b5MFSbz6-78" value="&lt;span&gt;B&lt;/span&gt;" style="ellipse;whiteSpace=wrap;html=1;rounded=1;fontStyle=1;fillColor=#EDEDED;" parent="oGk8fqHeLHp1b5MFSbz6-25" vertex="1">
          <mxGeometry x="80" y="840" width="40" height="40" as="geometry" />
        </mxCell>
        <mxCell id="aPtd1EGF3z1ukujCjhU6-0" value="&lt;span style=&quot;border-color: var(--border-color);&quot;&gt;&lt;b style=&quot;border-color: var(--border-color);&quot;&gt;&lt;font style=&quot;font-size: 32px;&quot;&gt;Launcher&lt;/font&gt;&lt;/b&gt;&lt;/span&gt;" style="rounded=0;whiteSpace=wrap;html=1;strokeWidth=2;fillColor=#f5f5f5;fontColor=#333333;strokeColor=#666666;" parent="WIyWlLk6GJQsqaUBKTNV-1" vertex="1">
          <mxGeometry x="30" y="20" width="764" height="60" as="geometry" />
        </mxCell>
        <mxCell id="COPMn8laMrk-ntn7h0sv-0" value="apt packages" style="swimlane;fontStyle=0;childLayout=stackLayout;horizontal=1;startSize=30;horizontalStack=0;resizeParent=1;resizeParentMax=0;resizeLast=0;collapsible=1;marginBottom=0;whiteSpace=wrap;html=1;fillColor=#f5f5f5;fontColor=#333333;strokeColor=#666666;strokeWidth=2;" parent="WIyWlLk6GJQsqaUBKTNV-1" vertex="1">
          <mxGeometry x="30" y="110" width="360" height="90" as="geometry" />
        </mxCell>
        <mxCell id="COPMn8laMrk-ntn7h0sv-1" value="&lt;font face=&quot;Courier New&quot;&gt;python3&lt;/font&gt;" style="text;strokeColor=none;fillColor=none;align=left;verticalAlign=middle;spacingLeft=4;spacingRight=4;overflow=hidden;points=[[0,0.5],[1,0.5]];portConstraint=eastwest;rotatable=0;whiteSpace=wrap;html=1;" parent="COPMn8laMrk-ntn7h0sv-0" vertex="1">
          <mxGeometry y="30" width="360" height="30" as="geometry" />
        </mxCell>
        <mxCell id="COPMn8laMrk-ntn7h0sv-2" value="&lt;div&gt;python3-tk&lt;/div&gt;" style="text;strokeColor=none;fillColor=none;align=left;verticalAlign=middle;spacingLeft=4;spacingRight=4;overflow=hidden;points=[[0,0.5],[1,0.5]];portConstraint=eastwest;rotatable=0;whiteSpace=wrap;html=1;fontFamily=Courier New;" parent="COPMn8laMrk-ntn7h0sv-0" vertex="1">
          <mxGeometry y="60" width="360" height="30" as="geometry" />
        </mxCell>
        <mxCell id="juNIhn1IUQExzj6yzyv--0" value="main.py" style="swimlane;whiteSpace=wrap;html=1;strokeWidth=3;" vertex="1" parent="WIyWlLk6GJQsqaUBKTNV-1">
          <mxGeometry x="843" y="63" width="796" height="1030" as="geometry" />
        </mxCell>
        <mxCell id="juNIhn1IUQExzj6yzyv--26" style="edgeStyle=orthogonalEdgeStyle;rounded=0;orthogonalLoop=1;jettySize=auto;html=1;entryX=0.5;entryY=0;entryDx=0;entryDy=0;" edge="1" parent="juNIhn1IUQExzj6yzyv--0" source="juNIhn1IUQExzj6yzyv--29" target="juNIhn1IUQExzj6yzyv--33">
          <mxGeometry relative="1" as="geometry" />
        </mxCell>
        <mxCell id="juNIhn1IUQExzj6yzyv--27" style="edgeStyle=orthogonalEdgeStyle;rounded=0;orthogonalLoop=1;jettySize=auto;html=1;exitX=0.5;exitY=1;exitDx=0;exitDy=0;entryX=0.5;entryY=0;entryDx=0;entryDy=0;" edge="1" parent="juNIhn1IUQExzj6yzyv--0" source="juNIhn1IUQExzj6yzyv--29" target="juNIhn1IUQExzj6yzyv--35">
          <mxGeometry relative="1" as="geometry" />
        </mxCell>
        <mxCell id="juNIhn1IUQExzj6yzyv--28" style="edgeStyle=orthogonalEdgeStyle;rounded=0;orthogonalLoop=1;jettySize=auto;html=1;exitX=0.5;exitY=1;exitDx=0;exitDy=0;entryX=0.5;entryY=0;entryDx=0;entryDy=0;" edge="1" parent="juNIhn1IUQExzj6yzyv--0" source="juNIhn1IUQExzj6yzyv--29" target="juNIhn1IUQExzj6yzyv--31">
          <mxGeometry relative="1" as="geometry" />
        </mxCell>
        <mxCell id="juNIhn1IUQExzj6yzyv--29" value="&lt;span&gt;B&lt;/span&gt;" style="ellipse;whiteSpace=wrap;html=1;rounded=1;fontStyle=1;fillColor=#EDEDED;" vertex="1" parent="juNIhn1IUQExzj6yzyv--0">
          <mxGeometry x="445" y="40" width="40" height="40" as="geometry" />
        </mxCell>
        <mxCell id="juNIhn1IUQExzj6yzyv--30" value="Yes" style="edgeStyle=orthogonalEdgeStyle;rounded=0;orthogonalLoop=1;jettySize=auto;html=1;exitX=0.5;exitY=1;exitDx=0;exitDy=0;entryX=0.5;entryY=0;entryDx=0;entryDy=0;" edge="1" parent="juNIhn1IUQExzj6yzyv--0" source="juNIhn1IUQExzj6yzyv--31" target="juNIhn1IUQExzj6yzyv--37">
          <mxGeometry relative="1" as="geometry" />
        </mxCell>
        <mxCell id="juNIhn1IUQExzj6yzyv--31" value="start button pressed" style="rhombus;whiteSpace=wrap;html=1;" vertex="1" parent="juNIhn1IUQExzj6yzyv--0">
          <mxGeometry x="250" y="130" width="90" height="80" as="geometry" />
        </mxCell>
        <mxCell id="juNIhn1IUQExzj6yzyv--32" value="Yes" style="edgeStyle=orthogonalEdgeStyle;rounded=0;orthogonalLoop=1;jettySize=auto;html=1;exitX=0.5;exitY=1;exitDx=0;exitDy=0;entryX=0.5;entryY=0;entryDx=0;entryDy=0;" edge="1" parent="juNIhn1IUQExzj6yzyv--0" source="juNIhn1IUQExzj6yzyv--33" target="juNIhn1IUQExzj6yzyv--60">
          <mxGeometry relative="1" as="geometry" />
        </mxCell>
        <mxCell id="juNIhn1IUQExzj6yzyv--33" value="stop button pressed" style="rhombus;whiteSpace=wrap;html=1;" vertex="1" parent="juNIhn1IUQExzj6yzyv--0">
          <mxGeometry x="420" y="130" width="90" height="80" as="geometry" />
        </mxCell>
        <mxCell id="juNIhn1IUQExzj6yzyv--34" value="Yes" style="edgeStyle=orthogonalEdgeStyle;rounded=0;orthogonalLoop=1;jettySize=auto;html=1;exitX=0.5;exitY=1;exitDx=0;exitDy=0;entryX=0.5;entryY=0;entryDx=0;entryDy=0;" edge="1" parent="juNIhn1IUQExzj6yzyv--0" source="juNIhn1IUQExzj6yzyv--35" target="juNIhn1IUQExzj6yzyv--68">
          <mxGeometry relative="1" as="geometry" />
        </mxCell>
        <mxCell id="juNIhn1IUQExzj6yzyv--35" value="reset button pressed" style="rhombus;whiteSpace=wrap;html=1;" vertex="1" parent="juNIhn1IUQExzj6yzyv--0">
          <mxGeometry x="590" y="130" width="90" height="80" as="geometry" />
        </mxCell>
        <mxCell id="juNIhn1IUQExzj6yzyv--36" style="edgeStyle=orthogonalEdgeStyle;rounded=0;orthogonalLoop=1;jettySize=auto;html=1;exitX=0.5;exitY=1;exitDx=0;exitDy=0;entryX=0.5;entryY=0;entryDx=0;entryDy=0;" edge="1" parent="juNIhn1IUQExzj6yzyv--0" source="juNIhn1IUQExzj6yzyv--37" target="juNIhn1IUQExzj6yzyv--40">
          <mxGeometry relative="1" as="geometry" />
        </mxCell>
        <mxCell id="juNIhn1IUQExzj6yzyv--37" value="get user input for net IP" style="rounded=1;whiteSpace=wrap;html=1;fontSize=12;glass=0;strokeWidth=1;shadow=0;" vertex="1" parent="juNIhn1IUQExzj6yzyv--0">
          <mxGeometry x="227.5" y="250" width="135" height="40" as="geometry" />
        </mxCell>
        <mxCell id="juNIhn1IUQExzj6yzyv--38" value="No" style="edgeStyle=orthogonalEdgeStyle;rounded=0;orthogonalLoop=1;jettySize=auto;html=1;exitX=0;exitY=0.5;exitDx=0;exitDy=0;entryX=1;entryY=0.5;entryDx=0;entryDy=0;" edge="1" parent="juNIhn1IUQExzj6yzyv--0" source="juNIhn1IUQExzj6yzyv--40" target="juNIhn1IUQExzj6yzyv--42">
          <mxGeometry relative="1" as="geometry" />
        </mxCell>
        <mxCell id="juNIhn1IUQExzj6yzyv--39" value="Yes" style="edgeStyle=orthogonalEdgeStyle;rounded=0;orthogonalLoop=1;jettySize=auto;html=1;exitX=0.5;exitY=1;exitDx=0;exitDy=0;entryX=0.5;entryY=0;entryDx=0;entryDy=0;" edge="1" parent="juNIhn1IUQExzj6yzyv--0" source="juNIhn1IUQExzj6yzyv--40" target="juNIhn1IUQExzj6yzyv--52">
          <mxGeometry relative="1" as="geometry" />
        </mxCell>
        <mxCell id="juNIhn1IUQExzj6yzyv--40" value=".env file&lt;br&gt;exists" style="rhombus;whiteSpace=wrap;html=1;" vertex="1" parent="juNIhn1IUQExzj6yzyv--0">
          <mxGeometry x="255" y="330" width="80" height="80" as="geometry" />
        </mxCell>
        <mxCell id="juNIhn1IUQExzj6yzyv--41" style="edgeStyle=orthogonalEdgeStyle;rounded=0;orthogonalLoop=1;jettySize=auto;html=1;exitX=0.5;exitY=1;exitDx=0;exitDy=0;entryX=0.5;entryY=0;entryDx=0;entryDy=0;" edge="1" parent="juNIhn1IUQExzj6yzyv--0" source="juNIhn1IUQExzj6yzyv--42" target="juNIhn1IUQExzj6yzyv--45">
          <mxGeometry relative="1" as="geometry" />
        </mxCell>
        <mxCell id="juNIhn1IUQExzj6yzyv--42" value="get user input for credentials" style="rounded=1;whiteSpace=wrap;html=1;fontSize=12;glass=0;strokeWidth=1;shadow=0;" vertex="1" parent="juNIhn1IUQExzj6yzyv--0">
          <mxGeometry x="70" y="350" width="135" height="40" as="geometry" />
        </mxCell>
        <mxCell id="juNIhn1IUQExzj6yzyv--43" value="No" style="edgeStyle=orthogonalEdgeStyle;rounded=0;orthogonalLoop=1;jettySize=auto;html=1;exitX=0;exitY=0.5;exitDx=0;exitDy=0;entryX=1;entryY=0.5;entryDx=0;entryDy=0;" edge="1" parent="juNIhn1IUQExzj6yzyv--0" source="juNIhn1IUQExzj6yzyv--45" target="juNIhn1IUQExzj6yzyv--46">
          <mxGeometry relative="1" as="geometry" />
        </mxCell>
        <mxCell id="juNIhn1IUQExzj6yzyv--44" value="Yes" style="edgeStyle=orthogonalEdgeStyle;rounded=0;orthogonalLoop=1;jettySize=auto;html=1;exitX=0.5;exitY=1;exitDx=0;exitDy=0;entryX=0.5;entryY=0;entryDx=0;entryDy=0;" edge="1" parent="juNIhn1IUQExzj6yzyv--0" source="juNIhn1IUQExzj6yzyv--45" target="juNIhn1IUQExzj6yzyv--48">
          <mxGeometry relative="1" as="geometry" />
        </mxCell>
        <mxCell id="juNIhn1IUQExzj6yzyv--45" value="valid credentials" style="rhombus;whiteSpace=wrap;html=1;" vertex="1" parent="juNIhn1IUQExzj6yzyv--0">
          <mxGeometry x="93.75" y="435" width="87.5" height="80" as="geometry" />
        </mxCell>
        <mxCell id="juNIhn1IUQExzj6yzyv--46" value="&lt;span&gt;B&lt;/span&gt;" style="ellipse;whiteSpace=wrap;html=1;rounded=1;fontStyle=1;fillColor=#EDEDED;" vertex="1" parent="juNIhn1IUQExzj6yzyv--0">
          <mxGeometry x="10" y="455" width="40" height="40" as="geometry" />
        </mxCell>
        <mxCell id="juNIhn1IUQExzj6yzyv--47" style="edgeStyle=orthogonalEdgeStyle;rounded=0;orthogonalLoop=1;jettySize=auto;html=1;exitX=0.5;exitY=1;exitDx=0;exitDy=0;entryX=0.5;entryY=0;entryDx=0;entryDy=0;" edge="1" parent="juNIhn1IUQExzj6yzyv--0" source="juNIhn1IUQExzj6yzyv--48" target="juNIhn1IUQExzj6yzyv--50">
          <mxGeometry relative="1" as="geometry" />
        </mxCell>
        <mxCell id="juNIhn1IUQExzj6yzyv--48" value="check for Nvidia GPU" style="rounded=1;whiteSpace=wrap;html=1;fontSize=12;glass=0;strokeWidth=1;shadow=0;" vertex="1" parent="juNIhn1IUQExzj6yzyv--0">
          <mxGeometry x="70" y="560" width="135" height="40" as="geometry" />
        </mxCell>
        <mxCell id="juNIhn1IUQExzj6yzyv--49" style="edgeStyle=orthogonalEdgeStyle;rounded=0;orthogonalLoop=1;jettySize=auto;html=1;exitX=1;exitY=0.5;exitDx=0;exitDy=0;entryX=0;entryY=0.5;entryDx=0;entryDy=0;" edge="1" parent="juNIhn1IUQExzj6yzyv--0" source="juNIhn1IUQExzj6yzyv--50" target="juNIhn1IUQExzj6yzyv--54">
          <mxGeometry relative="1" as="geometry" />
        </mxCell>
        <mxCell id="juNIhn1IUQExzj6yzyv--50" value="generate .env file" style="rounded=1;whiteSpace=wrap;html=1;fontSize=12;glass=0;strokeWidth=1;shadow=0;" vertex="1" parent="juNIhn1IUQExzj6yzyv--0">
          <mxGeometry x="70" y="640" width="135" height="40" as="geometry" />
        </mxCell>
        <mxCell id="juNIhn1IUQExzj6yzyv--51" style="edgeStyle=orthogonalEdgeStyle;rounded=0;orthogonalLoop=1;jettySize=auto;html=1;exitX=0.5;exitY=1;exitDx=0;exitDy=0;entryX=0.5;entryY=0;entryDx=0;entryDy=0;" edge="1" parent="juNIhn1IUQExzj6yzyv--0" source="juNIhn1IUQExzj6yzyv--52" target="juNIhn1IUQExzj6yzyv--54">
          <mxGeometry relative="1" as="geometry" />
        </mxCell>
        <mxCell id="juNIhn1IUQExzj6yzyv--52" value="update net IP in .env file" style="rounded=1;whiteSpace=wrap;html=1;fontSize=12;glass=0;strokeWidth=1;shadow=0;" vertex="1" parent="juNIhn1IUQExzj6yzyv--0">
          <mxGeometry x="227.5" y="455" width="135" height="40" as="geometry" />
        </mxCell>
        <mxCell id="juNIhn1IUQExzj6yzyv--53" style="edgeStyle=orthogonalEdgeStyle;rounded=0;orthogonalLoop=1;jettySize=auto;html=1;exitX=0.5;exitY=1;exitDx=0;exitDy=0;entryX=0.5;entryY=0;entryDx=0;entryDy=0;" edge="1" parent="juNIhn1IUQExzj6yzyv--0" source="juNIhn1IUQExzj6yzyv--54" target="juNIhn1IUQExzj6yzyv--56">
          <mxGeometry relative="1" as="geometry" />
        </mxCell>
        <mxCell id="juNIhn1IUQExzj6yzyv--54" value="get selected components to run" style="rounded=1;whiteSpace=wrap;html=1;fontSize=12;glass=0;strokeWidth=1;shadow=0;" vertex="1" parent="juNIhn1IUQExzj6yzyv--0">
          <mxGeometry x="227.5" y="640" width="135" height="40" as="geometry" />
        </mxCell>
        <mxCell id="juNIhn1IUQExzj6yzyv--55" style="edgeStyle=orthogonalEdgeStyle;rounded=0;orthogonalLoop=1;jettySize=auto;html=1;exitX=0.5;exitY=1;exitDx=0;exitDy=0;entryX=0.5;entryY=0;entryDx=0;entryDy=0;" edge="1" parent="juNIhn1IUQExzj6yzyv--0" source="juNIhn1IUQExzj6yzyv--56" target="juNIhn1IUQExzj6yzyv--58">
          <mxGeometry relative="1" as="geometry" />
        </mxCell>
        <mxCell id="juNIhn1IUQExzj6yzyv--56" value="start selected docker containers" style="rounded=1;whiteSpace=wrap;html=1;fontSize=12;glass=0;strokeWidth=1;shadow=0;" vertex="1" parent="juNIhn1IUQExzj6yzyv--0">
          <mxGeometry x="227.5" y="710" width="135" height="40" as="geometry" />
        </mxCell>
        <mxCell id="juNIhn1IUQExzj6yzyv--57" value="Yes" style="edgeStyle=orthogonalEdgeStyle;rounded=0;orthogonalLoop=1;jettySize=auto;html=1;exitX=0.5;exitY=1;exitDx=0;exitDy=0;entryX=0.5;entryY=0;entryDx=0;entryDy=0;" edge="1" parent="juNIhn1IUQExzj6yzyv--0" source="juNIhn1IUQExzj6yzyv--58" target="juNIhn1IUQExzj6yzyv--79">
          <mxGeometry relative="1" as="geometry">
            <mxPoint x="295" y="900" as="targetPoint" />
          </mxGeometry>
        </mxCell>
        <mxCell id="juNIhn1IUQExzj6yzyv--58" value="platform started" style="rhombus;whiteSpace=wrap;html=1;" vertex="1" parent="juNIhn1IUQExzj6yzyv--0">
          <mxGeometry x="255" y="780" width="80" height="80" as="geometry" />
        </mxCell>
        <mxCell id="juNIhn1IUQExzj6yzyv--59" style="edgeStyle=orthogonalEdgeStyle;rounded=0;orthogonalLoop=1;jettySize=auto;html=1;exitX=0.5;exitY=1;exitDx=0;exitDy=0;entryX=0.5;entryY=0;entryDx=0;entryDy=0;" edge="1" parent="juNIhn1IUQExzj6yzyv--0" source="juNIhn1IUQExzj6yzyv--60" target="juNIhn1IUQExzj6yzyv--63">
          <mxGeometry relative="1" as="geometry" />
        </mxCell>
        <mxCell id="juNIhn1IUQExzj6yzyv--60" value="stop docker containers" style="rounded=1;whiteSpace=wrap;html=1;fontSize=12;glass=0;strokeWidth=1;shadow=0;" vertex="1" parent="juNIhn1IUQExzj6yzyv--0">
          <mxGeometry x="397.5" y="250" width="135" height="40" as="geometry" />
        </mxCell>
        <mxCell id="juNIhn1IUQExzj6yzyv--61" value="enable start button&lt;br&gt;enable reset button" style="rounded=1;whiteSpace=wrap;html=1;fontSize=12;glass=0;strokeWidth=1;shadow=0;" vertex="1" parent="juNIhn1IUQExzj6yzyv--0">
          <mxGeometry x="400" y="455" width="130" height="39" as="geometry" />
        </mxCell>
        <mxCell id="juNIhn1IUQExzj6yzyv--62" value="Yes" style="edgeStyle=orthogonalEdgeStyle;rounded=0;orthogonalLoop=1;jettySize=auto;html=1;exitX=0.5;exitY=1;exitDx=0;exitDy=0;entryX=0.5;entryY=0;entryDx=0;entryDy=0;" edge="1" parent="juNIhn1IUQExzj6yzyv--0" source="juNIhn1IUQExzj6yzyv--63" target="juNIhn1IUQExzj6yzyv--61">
          <mxGeometry relative="1" as="geometry" />
        </mxCell>
        <mxCell id="juNIhn1IUQExzj6yzyv--63" value="platform stopped" style="rhombus;whiteSpace=wrap;html=1;" vertex="1" parent="juNIhn1IUQExzj6yzyv--0">
          <mxGeometry x="425" y="330" width="80" height="79" as="geometry" />
        </mxCell>
        <mxCell id="juNIhn1IUQExzj6yzyv--64" value="&lt;span&gt;B&lt;/span&gt;" style="ellipse;whiteSpace=wrap;html=1;rounded=1;fontStyle=1;fillColor=#EDEDED;" vertex="1" parent="juNIhn1IUQExzj6yzyv--0">
          <mxGeometry x="445" y="530" width="40" height="39" as="geometry" />
        </mxCell>
        <mxCell id="juNIhn1IUQExzj6yzyv--65" style="edgeStyle=orthogonalEdgeStyle;rounded=0;orthogonalLoop=1;jettySize=auto;html=1;exitX=0.5;exitY=1;exitDx=0;exitDy=0;entryX=0.5;entryY=0;entryDx=0;entryDy=0;" edge="1" parent="juNIhn1IUQExzj6yzyv--0" source="juNIhn1IUQExzj6yzyv--61" target="juNIhn1IUQExzj6yzyv--64">
          <mxGeometry relative="1" as="geometry" />
        </mxCell>
        <mxCell id="juNIhn1IUQExzj6yzyv--66" value="No" style="edgeStyle=orthogonalEdgeStyle;rounded=0;orthogonalLoop=1;jettySize=auto;html=1;exitX=1;exitY=0.5;exitDx=0;exitDy=0;" edge="1" parent="juNIhn1IUQExzj6yzyv--0" source="juNIhn1IUQExzj6yzyv--68" target="juNIhn1IUQExzj6yzyv--69">
          <mxGeometry relative="1" as="geometry" />
        </mxCell>
        <mxCell id="juNIhn1IUQExzj6yzyv--67" value="Yes" style="edgeStyle=orthogonalEdgeStyle;rounded=0;orthogonalLoop=1;jettySize=auto;html=1;exitX=0.5;exitY=1;exitDx=0;exitDy=0;entryX=0.5;entryY=0;entryDx=0;entryDy=0;" edge="1" parent="juNIhn1IUQExzj6yzyv--0" source="juNIhn1IUQExzj6yzyv--68" target="juNIhn1IUQExzj6yzyv--71">
          <mxGeometry relative="1" as="geometry" />
        </mxCell>
        <mxCell id="juNIhn1IUQExzj6yzyv--68" value="user confirmation" style="rhombus;whiteSpace=wrap;html=1;" vertex="1" parent="juNIhn1IUQExzj6yzyv--0">
          <mxGeometry x="578" y="250" width="114" height="79" as="geometry" />
        </mxCell>
        <mxCell id="juNIhn1IUQExzj6yzyv--69" value="&lt;span&gt;B&lt;/span&gt;" style="ellipse;whiteSpace=wrap;html=1;rounded=1;fontStyle=1;fillColor=#EDEDED;" vertex="1" parent="juNIhn1IUQExzj6yzyv--0">
          <mxGeometry x="740" y="269.5" width="40" height="40" as="geometry" />
        </mxCell>
        <mxCell id="juNIhn1IUQExzj6yzyv--70" style="edgeStyle=orthogonalEdgeStyle;rounded=0;orthogonalLoop=1;jettySize=auto;html=1;exitX=0.5;exitY=1;exitDx=0;exitDy=0;entryX=0.5;entryY=0;entryDx=0;entryDy=0;" edge="1" parent="juNIhn1IUQExzj6yzyv--0" source="juNIhn1IUQExzj6yzyv--71" target="juNIhn1IUQExzj6yzyv--73">
          <mxGeometry relative="1" as="geometry" />
        </mxCell>
        <mxCell id="juNIhn1IUQExzj6yzyv--71" value="delete DB container" style="rounded=1;whiteSpace=wrap;html=1;fontSize=12;glass=0;strokeWidth=1;shadow=0;" vertex="1" parent="juNIhn1IUQExzj6yzyv--0">
          <mxGeometry x="567.5" y="369" width="135" height="40" as="geometry" />
        </mxCell>
        <mxCell id="juNIhn1IUQExzj6yzyv--72" style="edgeStyle=orthogonalEdgeStyle;rounded=0;orthogonalLoop=1;jettySize=auto;html=1;exitX=0.5;exitY=1;exitDx=0;exitDy=0;entryX=0.5;entryY=0;entryDx=0;entryDy=0;" edge="1" parent="juNIhn1IUQExzj6yzyv--0" source="juNIhn1IUQExzj6yzyv--73" target="juNIhn1IUQExzj6yzyv--75">
          <mxGeometry relative="1" as="geometry" />
        </mxCell>
        <mxCell id="juNIhn1IUQExzj6yzyv--73" value="delete DB docker volume" style="rounded=1;whiteSpace=wrap;html=1;fontSize=12;glass=0;strokeWidth=1;shadow=0;" vertex="1" parent="juNIhn1IUQExzj6yzyv--0">
          <mxGeometry x="567.5" y="450" width="135" height="40" as="geometry" />
        </mxCell>
        <mxCell id="juNIhn1IUQExzj6yzyv--74" style="edgeStyle=orthogonalEdgeStyle;rounded=0;orthogonalLoop=1;jettySize=auto;html=1;exitX=0.5;exitY=1;exitDx=0;exitDy=0;entryX=0.5;entryY=0;entryDx=0;entryDy=0;" edge="1" parent="juNIhn1IUQExzj6yzyv--0" source="juNIhn1IUQExzj6yzyv--75" target="juNIhn1IUQExzj6yzyv--77">
          <mxGeometry relative="1" as="geometry" />
        </mxCell>
        <mxCell id="juNIhn1IUQExzj6yzyv--75" value="empy web&#39;s media dir" style="rounded=1;whiteSpace=wrap;html=1;fontSize=12;glass=0;strokeWidth=1;shadow=0;" vertex="1" parent="juNIhn1IUQExzj6yzyv--0">
          <mxGeometry x="567.5" y="530" width="135" height="40" as="geometry" />
        </mxCell>
        <mxCell id="juNIhn1IUQExzj6yzyv--76" style="edgeStyle=orthogonalEdgeStyle;rounded=0;orthogonalLoop=1;jettySize=auto;html=1;exitX=0.5;exitY=1;exitDx=0;exitDy=0;entryX=0.5;entryY=0;entryDx=0;entryDy=0;" edge="1" parent="juNIhn1IUQExzj6yzyv--0" source="juNIhn1IUQExzj6yzyv--77" target="juNIhn1IUQExzj6yzyv--78">
          <mxGeometry relative="1" as="geometry" />
        </mxCell>
        <mxCell id="juNIhn1IUQExzj6yzyv--77" value="delete .env file" style="rounded=1;whiteSpace=wrap;html=1;fontSize=12;glass=0;strokeWidth=1;shadow=0;" vertex="1" parent="juNIhn1IUQExzj6yzyv--0">
          <mxGeometry x="567.5" y="610" width="135" height="40" as="geometry" />
        </mxCell>
        <mxCell id="juNIhn1IUQExzj6yzyv--78" value="enable start button" style="rounded=1;whiteSpace=wrap;html=1;fontSize=12;glass=0;strokeWidth=1;shadow=0;" vertex="1" parent="juNIhn1IUQExzj6yzyv--0">
          <mxGeometry x="570" y="690" width="130" height="40" as="geometry" />
        </mxCell>
        <mxCell id="juNIhn1IUQExzj6yzyv--79" value="enable stop button &amp;amp; launch browser" style="rounded=1;whiteSpace=wrap;html=1;fontSize=12;glass=0;strokeWidth=1;shadow=0;" vertex="1" parent="juNIhn1IUQExzj6yzyv--0">
          <mxGeometry x="230" y="900" width="130" height="40" as="geometry" />
        </mxCell>
        <mxCell id="juNIhn1IUQExzj6yzyv--80" value="&lt;span&gt;B&lt;/span&gt;" style="ellipse;whiteSpace=wrap;html=1;rounded=1;fontStyle=1;fillColor=#EDEDED;" vertex="1" parent="juNIhn1IUQExzj6yzyv--0">
          <mxGeometry x="275" y="970" width="40" height="40" as="geometry" />
        </mxCell>
        <mxCell id="juNIhn1IUQExzj6yzyv--81" style="edgeStyle=orthogonalEdgeStyle;rounded=0;orthogonalLoop=1;jettySize=auto;html=1;exitX=0.5;exitY=1;exitDx=0;exitDy=0;entryX=0.5;entryY=0;entryDx=0;entryDy=0;" edge="1" parent="juNIhn1IUQExzj6yzyv--0" source="juNIhn1IUQExzj6yzyv--79" target="juNIhn1IUQExzj6yzyv--80">
          <mxGeometry relative="1" as="geometry">
            <mxPoint x="295" y="970" as="targetPoint" />
          </mxGeometry>
        </mxCell>
        <mxCell id="juNIhn1IUQExzj6yzyv--82" value="&lt;span&gt;B&lt;/span&gt;" style="ellipse;whiteSpace=wrap;html=1;rounded=1;fontStyle=1;fillColor=#EDEDED;" vertex="1" parent="juNIhn1IUQExzj6yzyv--0">
          <mxGeometry x="615" y="766" width="40" height="39" as="geometry" />
        </mxCell>
        <mxCell id="juNIhn1IUQExzj6yzyv--83" style="edgeStyle=orthogonalEdgeStyle;rounded=0;orthogonalLoop=1;jettySize=auto;html=1;exitX=0.5;exitY=1;exitDx=0;exitDy=0;entryX=0.5;entryY=0;entryDx=0;entryDy=0;" edge="1" parent="juNIhn1IUQExzj6yzyv--0" source="juNIhn1IUQExzj6yzyv--78" target="juNIhn1IUQExzj6yzyv--82">
          <mxGeometry relative="1" as="geometry">
            <mxPoint x="635" y="730" as="sourcePoint" />
          </mxGeometry>
        </mxCell>
      </root>
    </mxGraphModel>
  </diagram>
</mxfile>
